<?xml version="1.0" encoding="UTF-8" standalone="no"?>
<!-- Created with Inkscape (http://www.inkscape.org/) -->

<svg
   xmlns:dc="http://purl.org/dc/elements/1.1/"
   xmlns:cc="http://creativecommons.org/ns#"
   xmlns:rdf="http://www.w3.org/1999/02/22-rdf-syntax-ns#"
   xmlns:svg="http://www.w3.org/2000/svg"
   xmlns="http://www.w3.org/2000/svg"
   version="1.1"
   width="42"
   height="42"
   id="svg3090">
  <defs
     id="defs3092" />
  <metadata
     id="metadata3095">
    <rdf:RDF>
      <cc:Work
         rdf:about="">
        <dc:format>image/svg+xml</dc:format>
        <dc:type
           rdf:resource="http://purl.org/dc/dcmitype/StillImage" />
        <dc:title></dc:title>
      </cc:Work>
    </rdf:RDF>
  </metadata>
  <g
     transform="translate(-102.49508,-184.50694)"
     id="layer1">
    <path
       d="m 123.49386,184.50646 c -11.59537,0 -20.99878,9.40186 -20.99878,21.00046 0,9.27785 6.01678,17.14871 14.36217,19.92595 1.05041,0.19235 1.43369,-0.45572 1.43369,-1.01212 0,-0.49852 -0.0182,-1.81953 -0.0283,-3.57188 -5.8421,1.26892 -7.07428,-2.81502 -7.07428,-2.81502 -0.95475,-2.42582 -2.33158,-3.07181 -2.33158,-3.07181 -1.90655,-1.30283 0.14399,-1.27667 0.14399,-1.27667 2.10753,0.14865 3.21686,2.16438 3.21686,2.16438 1.87328,3.20885 4.91493,2.2822 6.1114,1.74501 0.19092,-1.35723 0.73328,-2.28285 1.333,-2.80754 -4.66316,-0.53023 -9.56547,-2.33158 -9.56547,-10.37866 0,-2.29343 0.81888,-4.16658 2.16193,-5.63494 -0.21606,-0.53113 -0.93671,-2.66727 0.20588,-5.55758 0,0 1.76306,-0.56465 5.77455,2.15291 1.67488,-0.46668 3.47171,-0.69873 5.25746,-0.70776 1.78317,0.009 3.57988,0.24108 5.25734,0.70776 4.00891,-2.71756 5.76952,-2.15291 5.76952,-2.15291 1.14504,2.89031 0.42452,5.02645 0.20897,5.55758 1.3455,1.46836 2.15832,3.34151 2.15832,5.63494 0,8.0672 -4.90991,9.84237 -9.58815,10.36203 0.7539,0.64871 1.42568,1.93027 1.42568,3.88915 0,2.80754 -0.0258,5.07208 -0.0258,5.76101 0,0.56143 0.37824,1.21465 1.44386,1.00967 8.33715,-2.78227 14.3489,-10.64823 14.3489,-19.9235 0,-11.5986 -9.40276,-21.00046 -21.00124,-21.00046"
       id="path14"
       style="fill:#1b1817;fill-opacity:1;fill-rule:evenodd;stroke:none" />
  </g>
</svg>
