<?xml version="1.0" encoding="UTF-8" standalone="no"?>
<!-- Created with Inkscape (http://www.inkscape.org/) -->

<svg
   xmlns:dc="http://purl.org/dc/elements/1.1/"
   xmlns:cc="http://creativecommons.org/ns#"
   xmlns:rdf="http://www.w3.org/1999/02/22-rdf-syntax-ns#"
   xmlns:svg="http://www.w3.org/2000/svg"
   xmlns="http://www.w3.org/2000/svg"
   version="1.1"
   width="42"
   height="42"
   id="svg2">
  <defs
     id="defs4" />
  <metadata
     id="metadata7">
    <rdf:RDF>
      <cc:Work
         rdf:about="">
        <dc:format>image/svg+xml</dc:format>
        <dc:type
           rdf:resource="http://purl.org/dc/dcmitype/StillImage" />
        <dc:title></dc:title>
      </cc:Work>
    </rdf:RDF>
  </metadata>
  <g
     transform="translate(0,-1010.3622)"
     id="layer1">
    <path
       d="M 21,0 C 9.366,0 0,9.366 0,21 0,25.555158 1.4293888,29.75377 3.875,33.1875 4.3299784,32.755243 4.85421,32.367127 5.46875,32 c 1.8872851,-1.126287 4.791963,-1.819789 8.71875,-2.09375 -0.913215,-1.187165 -1.37501,-2.210983 -1.375,-3.09375 -10e-6,-0.456599 0.164339,-1.050682 0.46875,-1.78125 -0.669693,0.06088 -1.164358,0.09376 -1.46875,0.09375 -2.313458,5e-6 -4.1943174,-0.758427 -5.625,-2.25 C 4.8785716,21.505202 4.2499988,19.85524 4.25,17.9375 c -1.2e-6,-2.435198 0.9580781,-4.481215 2.90625,-6.125 1.9786038,-1.674189 4.717314,-2.4999793 8.1875,-2.5 l 9.40625,0 -2.9375,1.65625 -2.84375,0 c 2.161233,1.795986 3.249981,3.842814 3.25,6.15625 -1.9e-5,1.491579 -0.396075,2.811224 -1.1875,3.9375 -0.5175,0.730572 -1.40822,1.557172 -2.65625,2.53125 -0.852339,0.85233 -1.250014,1.610762 -1.25,2.25 -1.4e-5,0.700127 0.396042,1.35995 1.1875,1.96875 l 1.625,1.28125 c 1.278468,0.974085 2.169998,1.832745 2.6875,2.59375 0.760983,1.095843 1.156229,2.350559 1.15625,3.78125 -2.1e-5,2.313444 -1.023029,4.293722 -3.0625,5.9375 -0.252084,0.200983 -0.511132,0.384152 -0.78125,0.5625 C 20.286305,41.985815 20.646817,42 21,42 32.634,42 42,32.634 42,21 42,9.366 32.634,0 21,0 z m -8.53125,10.8125 c -1.582896,1.9e-5 -2.7702528,0.691902 -3.53125,2.03125 -0.4566077,0.76102 -0.6875052,1.71829 -0.6875,2.875 -5.2e-6,1.856862 0.4617898,3.574183 1.375,5.1875 1.095838,1.948177 2.547772,2.937506 4.34375,2.9375 1.217594,6e-6 2.241413,-0.428919 3.09375,-1.28125 0.760989,-0.760996 1.156235,-1.882613 1.15625,-3.34375 -1.5e-5,-1.917717 -0.49468,-3.732837 -1.46875,-5.4375 -1.126298,-1.978592 -2.546172,-2.968731 -4.28125,-2.96875 z M 30,11 l 2,0 0,5 5,0 0,2 -5,0 0,5 -2,0 0,-5 -5,0 0,-2 5,0 0,-5 z M 14.6875,31.1875 c -1.765539,-1e-6 -3.350571,0.231706 -4.78125,0.71875 -2.2773042,0.794405 -3.5766408,2.086965 -3.875,3.875 3.010079,3.048224 6.954215,5.152076 11.375,5.90625 0.611862,-0.222413 1.152334,-0.539943 1.625,-0.90625 1.126269,-0.882774 1.687482,-2.070131 1.6875,-3.53125 -1.8e-5,-1.095852 -0.396073,-2.085991 -1.1875,-2.96875 -0.608819,-0.669687 -1.863535,-1.692696 -3.78125,-3.0625 -0.243534,-0.03044 -0.60591,-0.03125 -1.0625,-0.03125 z"
       transform="translate(0,1010.3622)"
       id="rect2987"
       style="fill:#db4a39;fill-opacity:1;stroke:none" />
  </g>
</svg>
